Coordinates
version=1
nRows=6
nColumns=36
inDegrees=yes

Units are S.I. units (second, meters, Newtons, ...)
If the header above contains a line with 'inDegrees', this indicates whether rotational values are in degrees (yes) or radians (no).

endheader
time	pelvis_tilt	pelvis_list	pelvis_rotation	pelvis_tx	pelvis_ty	pelvis_tz	hip_flexion_r	hip_adduction_r	hip_rotation_r	knee_angle_r	knee_angle_r_beta	ankle_angle_r	subtalar_angle_r	mtp_angle_r	hip_flexion_l	hip_adduction_l	hip_rotation_l	knee_angle_l	knee_angle_l_beta	ankle_angle_l	subtalar_angle_l	mtp_angle_l	lumbar_extension	lumbar_bending	lumbar_rotation	arm_flex_r	arm_add_r	arm_rot_r	elbow_flex_r	pro_sup_r	arm_flex_l	arm_add_l	arm_rot_l	elbow_flex_l	pro_sup_l
      0.00000000	     -3.43249276	      1.58216837	      3.68395426	     -0.13795618	      1.20489277	     -0.07148544	      3.74826485	     -2.11096363	     -7.77786876	      3.68833020	      0.06437351	      4.94869268	      1.11905308	     -5.96864533	      2.95152218	     -0.94903807	     -4.61089146	      3.77894703	      0.06595507	      4.23959049	      4.06623721	     -5.96864533	     -9.04665812	     -0.00937889	      0.39053079	      1.61590227	    -12.83313010	     20.92783489	     28.89548845	     71.39933786	      3.90981976	    -14.07121848	     21.89262587	     24.50153090	     63.77563800
      0.01666670	     -4.73673333	      1.18342317	      4.05199087	     -0.13330544	      1.20528403	     -0.07452197	      4.56609464	     -1.47992446	     -7.15988941	      3.71795038	      0.06489048	      4.43462701	      1.37454349	     -6.27861499	      3.77801294	     -0.87076905	     -3.39981712	      2.97579945	      0.05193750	      3.60486322	      6.01181682	     -6.27861499	     -6.61302145	      0.39119335	      0.86736480	      1.89313956	    -12.62250990	     25.24875822	     25.53417122	     71.36090716	      4.15663438	    -13.09244142	     25.66694185	     22.39777997	     63.96211990
      0.03333330	     -5.01497699	      1.61990653	      3.92215574	     -0.13288021	      1.20933791	     -0.07593333	      4.25860619	     -1.69592758	     -7.95298311	      2.89211113	      0.05047686	      3.33791729	      0.74235861	     -6.39658000	      3.81622814	     -0.35841591	     -3.66322183	      2.51531135	      0.04390046	      3.40787958	      6.81685128	     -6.39658000	     -6.26330994	     -0.24996327	      1.23212534	      2.30284804	    -12.56024962	     30.53877147	     25.19742652	     71.00022133	      4.33288317	    -13.00131011	     30.69347373	     22.50565390	     63.77256100
      0.05000000	     -4.68836932	      1.96429042	      4.00875581	     -0.12750339	      1.21176197	     -0.07627619	      3.33806302	     -1.95028733	     -8.39339571	      2.21701861	      0.03869427	      3.18034275	      1.36766821	     -7.14577390	      2.92997293	      0.07735625	     -3.25451666	      1.83889027	      0.03209469	      3.12360722	      6.26381361	     -7.14577390	     -6.29547030	     -0.74752434	      1.32980493	      2.75644133	    -12.23570328	     38.35111579	     24.02543265	     61.24659845	      4.98738436	    -12.57018335	     37.89005640	     21.53432062	     54.93997551
      0.06666670	     -4.42890910	      2.16040132	      4.08378408	     -0.12527959	      1.20667352	     -0.07737211	      2.64477164	     -2.10746631	     -8.42174097	      1.76398449	      0.03078734	      3.25464205	      1.11677522	     -7.16190287	      2.23998137	      0.36900932	     -3.11907918	      1.53212676	      0.02674066	      3.49545945	      6.04210293	     -7.16190287	     -6.52231719	     -0.94630649	      1.66370232	      2.49315187	    -11.61221842	     39.95848908	     23.86384713	     61.49277856	      5.24375216	    -11.69299105	     39.77612559	     21.27503840	     55.21840329
      0.08333330	     -4.42110545	      2.28464248	      3.99114244	     -0.12441153	      1.20925821	     -0.07724856	      2.45923027	     -2.21482532	     -8.11089386	      1.65505306	      0.02888613	      3.54752328	      1.06926384	     -7.40612106	      1.99895843	      0.55586663	     -2.91510768	      1.32799956	      0.02317796	      3.90502086	      5.92004367	     -7.40612106	     -6.32207950	     -1.10941590	      1.68109430	      2.82172606	    -11.04415551	     43.61982335	     23.25575522	     61.22032237	      5.50286930	    -10.98893057	     43.53455824	     20.39640909	     56.82808925
